<?xml version="1.0" standalone="no"?>
<!DOCTYPE svg PUBLIC "-//W3C//DTD SVG 20010904//EN"
 "http://www.w3.org/TR/2001/REC-SVG-20010904/DTD/svg10.dtd">
<svg version="1.0" xmlns="http://www.w3.org/2000/svg"
 width="263.000000pt" height="85.000000pt" viewBox="0 0 263.000000 85.000000"
 preserveAspectRatio="xMidYMid meet">
<metadata>
Created by potrace 1.10, written by Peter Selinger 2001-2011
</metadata>
<g transform="translate(0.000000,85.000000) scale(0.100000,-0.100000)"
fill="#000000" stroke="none">
<path d="M1643 665 l-42 -25 -659 0 c-618 0 -660 -1 -675 -18 -17 -18 -65
-158 -87 -250 -10 -44 -10 -58 0 -78 17 -32 51 -37 201 -31 68 3 129 5 134 5
6 0 116 -2 245 -4 255 -4 273 0 286 51 3 14 9 25 13 26 3 0 19 3 35 5 43 7 76
-3 76 -24 0 -10 7 -28 16 -40 15 -21 21 -22 188 -22 156 0 175 -2 190 -19 15
-17 15 -19 0 -31 -12 -11 -20 -11 -35 -2 -13 8 -69 12 -173 11 -100 0 -162 4
-176 11 -17 9 -33 9 -65 1 -24 -6 -57 -11 -72 -11 -16 0 -34 -5 -40 -11 -9 -9
-19 -9 -40 -1 -15 7 -44 11 -63 11 -19 0 -147 0 -284 0 -171 1 -253 -2 -262
-10 -36 -30 -56 -108 -31 -126 7 -6 134 -8 322 -6 171 2 325 4 344 3 18 0 40
5 47 11 9 7 19 6 36 -4 19 -11 73 -13 288 -11 146 2 274 3 285 2 11 0 65 1
120 1 55 1 111 1 125 1 14 0 133 -1 265 -2 217 -3 242 -1 258 15 19 19 24 101
7 112 -6 4 8 24 34 48 36 34 45 51 51 88 5 33 3 55 -8 75 -15 29 -14 30 34 81
44 46 49 57 49 97 0 37 -5 48 -30 69 -29 25 -34 25 -195 27 -140 1 -170 -2
-195 -17 -27 -16 -30 -16 -48 0 -16 15 -45 17 -223 17 -200 0 -205 -1 -246
-25z m462 -30 l20 -26 37 26 c36 24 42 25 196 25 154 0 159 -1 181 -24 20 -22
21 -27 11 -63 -9 -28 -25 -48 -60 -73 -27 -19 -49 -42 -49 -50 0 -8 10 -28 23
-43 21 -27 22 -32 11 -70 -6 -22 -25 -51 -41 -64 -28 -22 -37 -23 -182 -23
-165 0 -150 -4 -200 60 l-20 24 -7 -34 c-4 -19 -13 -38 -19 -42 -6 -4 -41 -8
-78 -8 l-68 0 -37 50 c-30 40 -43 50 -63 48 -20 -2 -26 -10 -33 -45 -9 -48
-25 -56 -97 -51 -37 2 -48 8 -66 35 -19 28 -23 31 -34 18 -11 -13 -40 -15
-169 -13 l-156 3 1 38 1 37 -88 0 c-88 0 -89 0 -95 -27 -4 -16 -11 -34 -17
-40 -12 -16 -123 -17 -133 -2 -4 8 -9 8 -17 0 -7 -7 -67 -11 -163 -11 -147 0
-153 1 -156 21 l-3 21 -27 -21 c-24 -19 -39 -21 -162 -21 -115 0 -138 2 -143
16 -3 8 4 48 16 87 12 40 31 105 43 145 l20 72 145 0 c138 0 146 -1 164 -22
l18 -23 1 23 c0 22 1 22 165 22 114 0 165 -3 165 -11 0 -6 -6 -9 -13 -6 -8 3
-14 -3 -14 -15 -1 -11 -9 -42 -18 -69 l-17 -49 -104 0 c-57 0 -104 -4 -104 -9
0 -5 -3 -16 -6 -25 -4 -12 0 -16 15 -16 12 0 21 5 21 10 0 6 39 10 98 10 l99
0 27 90 28 90 158 0 c100 0 161 -4 165 -10 5 -8 11 -8 20 0 9 7 69 10 179 8
91 -2 166 0 166 4 0 4 10 16 22 28 20 19 34 20 222 20 l200 0 21 -25z m-297
-364 c17 -21 28 -41 25 -45 -8 -8 -88 -8 -95 0 -7 6 24 84 33 84 3 0 20 -17
37 -39z m-652 -66 c-17 -13 -18 -15 -3 -15 11 0 17 -8 18 -22 l0 -23 11 23 c8
16 20 22 43 22 17 0 34 -3 37 -6 10 -10 -25 -84 -40 -84 -8 0 -12 6 -9 15 4 8
2 17 -3 20 -5 3 -11 -4 -15 -15 -9 -28 -35 -26 -28 3 5 20 4 20 -8 5 -20 -25
-63 -32 -78 -14 -7 8 -10 19 -7 24 3 5 -6 7 -19 4 -13 -2 -27 -13 -30 -23 -4
-10 -13 -19 -21 -19 -11 0 -13 6 -8 23 21 67 21 67 74 67 32 0 57 6 66 15 9 8
21 15 27 15 7 0 3 -7 -7 -15z m-288 -20 c10 -4 10 -10 2 -24 -14 -26 -13 -51
2 -27 21 37 43 56 63 56 18 0 20 -5 17 -45 -3 -30 -9 -45 -18 -45 -8 0 -14 5
-14 10 0 6 -7 10 -15 10 -8 0 -15 -4 -15 -10 0 -5 -13 -10 -30 -10 -23 0 -30
4 -30 20 0 11 -4 20 -10 20 -5 0 -10 -9 -10 -20 0 -13 -7 -20 -20 -20 -24 0
-24 -1 -5 43 13 33 13 35 -4 30 -9 -2 -23 -20 -30 -39 -7 -19 -19 -34 -28 -34
-10 0 -13 5 -8 18 18 43 18 51 -3 45 -11 -3 -18 -11 -16 -17 9 -24 -27 -39
-98 -43 -77 -4 -75 -6 -52 64 3 10 -3 3 -15 -15 -12 -18 -19 -36 -17 -40 5 -9
-29 -12 -61 -6 -20 4 -21 7 -11 35 6 16 8 32 5 36 -3 3 -11 -13 -17 -36 -12
-45 -31 -53 -48 -18 l-11 22 0 -22 c-1 -16 -7 -23 -21 -23 -18 0 -19 1 -2 45
18 50 51 63 53 23 l2 -23 4 23 c4 19 11 22 48 22 l44 0 -14 -27 c-8 -15 -12
-30 -9 -33 7 -7 34 30 34 46 0 9 23 14 78 16 90 3 261 -1 280 -7z m1138 7 c6
-4 14 -14 17 -22 4 -12 6 -11 6 3 1 13 10 17 41 17 l41 0 -7 -37 c-9 -49 -11
-53 -36 -53 -16 0 -18 3 -9 14 8 9 8 16 2 20 -5 4 -12 -3 -16 -14 -9 -28 -39
-27 -32 1 l6 21 -23 -21 c-12 -11 -29 -21 -38 -21 -20 0 -42 26 -33 39 3 7 0
8 -9 5 -9 -3 -14 -10 -11 -14 3 -5 -3 -6 -14 -3 -10 3 -21 -2 -24 -10 -4 -10
-23 -15 -62 -16 -54 -1 -56 0 -49 21 6 20 5 21 -10 6 -16 -17 -73 -34 -82 -25
-3 2 1 23 8 46 12 38 15 41 50 41 32 0 38 -3 39 -22 l2 -23 4 23 c4 21 9 22
84 22 43 0 79 -4 79 -9 0 -6 12 -3 28 5 31 16 33 16 48 6z m-686 -17 c-7 -9
-10 -18 -7 -21 3 -3 12 3 19 15 10 16 23 21 57 21 l43 0 -17 -26 c-9 -14 -14
-29 -10 -32 8 -8 35 27 35 45 0 9 15 13 48 13 26 0 42 -4 36 -8 -6 -4 -14 -17
-18 -29 -11 -35 28 -30 56 7 12 17 31 30 42 30 19 0 21 -5 18 -45 -4 -43 -24
-62 -35 -32 -3 10 -9 10 -26 0 -11 -7 -41 -13 -65 -13 l-45 0 15 35 c20 49 17
57 -7 13 -11 -21 -25 -39 -32 -40 -59 -7 -65 -5 -56 24 4 15 11 33 15 39 4 7
3 9 -4 5 -6 -3 -16 -22 -22 -41 -6 -19 -18 -35 -25 -35 -9 0 -12 6 -8 18 5 14
3 13 -10 -3 -14 -17 -18 -18 -27 -5 -6 10 -10 11 -10 3 0 -7 -7 -13 -15 -13
-19 0 -19 1 1 50 13 32 21 40 41 40 22 0 24 -2 13 -15z m964 -7 l-5 -23 12 23
c12 22 59 32 59 11 0 -5 -4 -8 -9 -5 -5 3 -21 -12 -36 -34 -36 -52 -55 -52
-55 1 0 48 -16 44 -26 -6 -4 -24 -12 -35 -24 -35 -13 0 -16 6 -12 25 2 14 8
28 13 31 17 10 9 22 -11 17 -11 -3 -24 -20 -30 -39 -7 -19 -18 -34 -26 -34
-17 0 -17 10 -4 44 6 17 6 26 0 26 -6 0 -10 5 -10 10 0 6 35 10 84 10 82 0 84
-1 80 -22z m118 -23 c-3 -30 -9 -45 -18 -45 -8 0 -14 5 -14 10 0 6 -7 10 -15
10 -8 0 -15 -4 -15 -10 0 -5 -7 -10 -15 -10 -18 0 -19 12 -3 28 7 7 9 12 5 12
-16 0 40 48 58 49 18 1 20 -4 17 -44z"/>
<path d="M2089 625 c-3 -5 -16 -47 -29 -93 -19 -69 -29 -88 -56 -108 -19 -15
-31 -31 -27 -39 4 -11 13 -8 39 13 27 21 40 44 60 106 21 67 31 151 13 121z"/>
<path d="M2516 592 c-4 -17 -27 -43 -62 -70 -39 -30 -53 -47 -46 -54 24 -24
132 95 132 143 0 21 -19 6 -24 -19z"/>
<path d="M300 592 c0 -4 13 -24 30 -44 l30 -36 -16 -46 c-17 -50 -15 -62 11
-53 14 6 20 33 18 82 -1 18 4 20 53 17 37 -3 54 0 54 8 0 8 -18 11 -59 8 -51
-2 -61 0 -72 17 -7 11 -13 22 -12 26 1 3 -7 10 -18 17 -10 7 -19 9 -19 4z"/>
<path d="M564 583 c13 -15 15 -26 8 -40 -5 -10 -17 -49 -27 -86 -14 -52 -26
-75 -52 -97 -33 -30 -35 -30 -153 -30 -73 0 -120 -4 -120 -10 0 -6 51 -10 133
-10 169 0 174 3 218 144 l31 99 -28 26 c-18 17 -22 18 -10 4z"/>
<path d="M1234 529 c-29 -113 -37 -119 -148 -119 l-93 0 -12 -40 c-11 -38 -14
-40 -51 -40 -21 0 -42 -4 -45 -10 -4 -6 16 -10 53 -10 l60 0 6 35 7 34 97 3
97 3 17 35 c9 19 26 63 36 97 16 50 17 64 7 73 -10 8 -17 -6 -31 -61z"/>
<path d="M1595 592 c-10 -7 -55 -142 -70 -206 -11 -50 -28 -55 -172 -56 -82 0
-133 -4 -133 -10 0 -6 56 -10 148 -10 175 0 169 -3 202 113 11 42 28 93 36
112 22 53 17 78 -11 57z"/>
<path d="M660 550 c31 -39 33 -40 96 -40 44 0 63 4 59 11 -4 6 -31 9 -63 8
-46 -2 -57 0 -66 16 -12 22 -37 44 -49 45 -5 0 6 -18 23 -40z"/>
<path d="M976 578 c4 -7 16 -25 26 -40 10 -14 18 -33 18 -42 0 -9 7 -16 16
-16 10 0 13 6 10 18 -5 15 1 17 50 14 41 -3 54 -1 49 8 -4 7 -28 10 -61 9 -32
-2 -59 2 -66 9 -7 7 -9 12 -5 12 4 0 -1 9 -10 20 -19 22 -38 27 -27 8z"/>
<path d="M1745 548 c4 -9 30 -13 88 -12 51 1 59 0 22 -3 -82 -4 -105 -11 -105
-28 0 -8 5 -15 10 -15 6 0 10 3 10 8 0 4 33 6 74 4 70 -3 74 -2 80 20 3 13 6
26 6 31 0 4 -43 7 -95 7 -71 0 -93 -3 -90 -12z"/>
<path d="M2220 545 c-8 -10 -31 -15 -66 -15 -41 0 -54 -4 -54 -15 0 -13 10
-14 58 -9 31 4 64 13 74 21 12 10 29 13 60 8 34 -5 47 -3 57 9 12 14 7 16 -52
16 -45 0 -68 -4 -77 -15z"/>
<path d="M1337 523 c-3 -5 -12 -32 -20 -60 -15 -51 -15 -53 4 -53 12 0 19 7
19 19 0 10 5 32 11 50 11 30 12 31 75 31 36 0 64 4 64 10 0 12 -146 14 -153 3z"/>
<path d="M2230 505 c-9 -11 -32 -15 -81 -15 -53 0 -69 -3 -69 -14 0 -8 -3 -21
-6 -30 -5 -12 5 -16 53 -18 35 -2 57 -7 56 -14 -1 -6 21 -12 55 -13 53 -2 55
-1 41 16 -31 36 -31 43 1 73 l32 30 -35 0 c-19 0 -40 -7 -47 -15z"/>
<path d="M392 461 c-16 -51 -16 -51 12 -51 31 0 64 28 72 63 6 26 5 27 -33 27
-38 0 -41 -2 -51 -39z"/>
<path d="M1065 490 c-4 -6 10 -10 34 -10 22 0 43 5 46 10 4 6 -10 10 -34 10
-22 0 -43 -4 -46 -10z"/>
<path d="M1371 478 c-26 -70 -27 -68 29 -68 49 0 52 1 66 35 8 20 12 40 9 45
-4 6 -26 10 -51 10 -37 0 -46 -4 -53 -22z"/>
<path d="M860 394 c-6 -14 -10 -29 -10 -34 0 -22 -47 -30 -164 -30 -74 0 -127
-4 -131 -10 -4 -7 44 -10 147 -8 152 3 153 3 165 28 6 14 15 37 18 53 9 35
-12 37 -25 1z"/>
<path d="M1710 368 c-30 -82 -26 -78 -76 -78 -32 0 -51 5 -61 18 -13 15 -13
14 0 -8 12 -21 23 -25 70 -28 l55 -3 17 51 c15 44 20 50 45 50 22 0 36 -10 65
-50 l37 -50 67 0 c63 0 69 2 79 25 6 14 9 32 5 42 -4 11 -3 14 5 9 8 -4 16 3
22 19 13 35 13 37 -9 26 -10 -6 -24 -30 -30 -56 l-11 -45 -68 0 -67 1 -38 54
c-31 45 -43 55 -66 55 -23 0 -31 -6 -41 -32z"/>
<path d="M2445 358 c-11 -59 -40 -68 -208 -68 l-145 0 -21 33 c-11 17 -21 27
-21 20 0 -6 12 -25 26 -42 l26 -31 149 0 c121 0 154 3 174 16 27 18 50 83 35
98 -5 5 -11 -5 -15 -26z"/>
<path d="M593 163 c24 -6 21 -23 -5 -23 -12 0 -19 -3 -15 -6 11 -11 57 6 57
21 0 10 -9 15 -27 14 -17 -1 -21 -3 -10 -6z"/>
</g>
</svg>
